<svg xmlns="http://www.w3.org/2000/svg" viewBox="0 0 46.22 41.91"><defs><style>.cls-1{fill:none;stroke:#fff;stroke-linecap:round;stroke-linejoin:round;stroke-width:4px;}.cls-2{opacity:0.1;}</style></defs><g id="Calque_2" data-name="Calque 2"><g id="Icons"><line class="cls-1" x1="18.37" y1="14.53" x2="19.55" y2="14.53"/><path class="cls-1" d="M23.82,38c.06-.18,6-23.47,6-23.47"/><line class="cls-1" x1="29.8" y1="14.53" x2="25.85" y2="2"/><polyline class="cls-1" points="6.31 9.71 3.43 14.53 23.82 38"/><polyline class="cls-1" points="23.82 2 10.92 2 9.07 5.09"/><polyline class="cls-1" points="23.82 2 36.72 2 44.22 14.53 23.82 38"/><line class="cls-1" x1="24.59" y1="14.53" x2="43.9" y2="14.53"/><g class="cls-2"><line class="cls-1" x1="16.94" y1="16.44" x2="18.12" y2="16.44"/><path class="cls-1" d="M22.4,39.91c.06-.18,6-23.47,6-23.47"/><line class="cls-1" x1="28.38" y1="16.44" x2="24.42" y2="3.91"/><polyline class="cls-1" points="4.88 11.62 2 16.44 22.4 39.91"/><polyline class="cls-1" points="22.4 3.91 9.49 3.91 7.65 7"/><polyline class="cls-1" points="22.4 3.91 35.3 3.91 42.79 16.44 22.4 39.91"/><line class="cls-1" x1="23.17" y1="16.44" x2="42.47" y2="16.44"/></g></g></g></svg>