<svg width="36" height="42" viewBox="0 0 36 42" fill="none" xmlns="http://www.w3.org/2000/svg">
<path d="M29.4941 22.1572C29.4746 18.8271 30.9834 16.3174 34.0303 14.4668C32.3262 12.0254 29.748 10.6826 26.3496 10.4238C23.1318 10.1699 19.6113 12.2988 18.3223 12.2988C16.96 12.2988 13.8447 10.5117 11.3936 10.5117C6.33496 10.5898 0.958984 14.5449 0.958984 22.5918C0.958984 24.9697 1.39355 27.4258 2.2627 29.9551C3.4248 33.2852 7.61426 41.4443 11.9844 41.3125C14.2695 41.2588 15.8857 39.6914 18.8594 39.6914C21.7451 39.6914 23.2393 41.3125 25.7881 41.3125C30.1973 41.249 33.9863 33.832 35.0898 30.4922C29.1768 27.7041 29.4941 22.3281 29.4941 22.1572V22.1572ZM24.3623 7.26465C26.8379 4.3252 26.6133 1.64941 26.54 0.6875C24.3525 0.814453 21.8232 2.17676 20.3828 3.85156C18.7959 5.64844 17.8633 7.87012 18.0635 10.375C20.4268 10.5557 22.585 9.33984 24.3623 7.26465V7.26465Z" fill="white"/>
</svg>
