<svg width="38" height="42" viewBox="0 0 38 42" fill="none" xmlns="http://www.w3.org/2000/svg">
<path d="M36.9687 19.4729L29.3958 15.0979L23.1667 21.1271L28.8604 26.6354L36.9687 21.9479C37.1861 21.8234 37.3666 21.6434 37.4918 21.4264C37.617 21.2094 37.6823 20.963 37.6812 20.7125C37.6831 20.4613 37.618 20.2141 37.4928 19.9962C37.3676 19.7784 37.1868 19.5978 36.9687 19.4729ZM28.1104 14.3542L19.7771 9.5375L1.51458 0.166668L22.1417 20.1333L28.1104 14.3542ZM1.81666 41.7917L19.8083 31.8688L27.575 27.3792L22.1417 22.1208L1.81666 41.7917ZM0.295827 0.975001L0.274994 41.2979L21.1146 21.1271L0.295827 0.975001Z" fill="white"/>
</svg>
